<svg width="40" height="40" viewBox="0 0 40 40" fill="none" xmlns="http://www.w3.org/2000/svg">
<path d="M22.2405 27.1831C22.7089 27.1831 25.4151 25.4488 26.7328 24.5474C29.9595 22.3403 32.7469 20.7649 35.9735 18.5577C35.5259 15.0813 35.2017 11.5057 35.3531 7.98343C35.3641 7.72715 35.1495 7.51751 34.8944 7.54443C33.3949 7.70265 31.7594 7.82262 29.9051 7.97887C27.7462 8.16079 26.0103 8.06396 23.8477 8.10737C19.5701 8.19325 15.286 7.95464 11.0447 7.39218C10.8073 7.36068 10.5918 7.53114 10.5692 7.76963L9.69165 19.656" fill="#248480"/>
<path d="M39.2304 23.7637C39.2068 23.0763 39.186 22.3592 39.1623 21.6185C39.1119 20.8837 39.1949 20.14 39.1979 19.3311C39.1949 18.9311 39.1741 18.5104 39.0497 18.0926C38.946 17.7607 38.8067 17.4467 38.6527 17.1385C38.6734 17.0911 38.6616 17.0645 38.6467 17.0348C38.6319 17.0082 38.6142 16.9845 38.5727 16.9815C38.5667 16.9637 38.5579 16.9489 38.549 16.9311C38.1579 16.1815 37.6986 15.4526 37.1771 14.7385C36.9223 14.3859 36.623 14.0303 36.3267 13.7074C36.1223 13.4763 35.9149 13.2452 35.7075 13.014C35.6927 12.7444 35.6779 12.4748 35.666 12.2052C35.6186 11.1356 35.6038 10.06 35.6275 8.99632C35.6334 8.72961 35.6423 8.46594 35.6541 8.19923L35.6601 8.00073C35.666 7.89404 35.6482 7.77258 35.6008 7.66892C35.509 7.45849 35.3134 7.28958 35.0823 7.24516C34.9668 7.21854 34.8334 7.23627 34.789 7.23923L34.5905 7.25703L34.1964 7.28958C33.9327 7.31034 33.669 7.33407 33.4082 7.35483C32.5371 7.42594 31.6749 7.49705 30.8334 7.56815C29.829 6.44221 28.8038 5.30144 27.7697 4.14592C27.4379 3.77851 27.109 3.39628 26.7356 3.03481C26.3653 2.6763 25.9416 2.33559 25.4319 2.11337C24.9253 1.8881 24.3416 1.82886 23.7993 1.90887C23.2541 1.9948 22.7475 2.19923 22.2853 2.44814C21.3519 2.95183 20.5667 3.6096 19.7608 4.21999C18.9519 4.83631 18.146 5.45552 17.343 6.07184C16.7119 6.55781 16.0838 7.03777 15.4556 7.51773C15.1505 7.49408 14.8542 7.47035 14.5608 7.44366C13.4438 7.34593 12.4097 7.2333 11.4497 7.11481C11.3282 7.09998 11.2097 7.08515 11.0912 7.0704C10.8897 7.04074 10.6645 7.10295 10.5104 7.23627C10.3504 7.36365 10.2527 7.58588 10.2438 7.76368C10.2379 7.87631 10.229 7.98887 10.2201 8.1015C10.1904 8.55188 10.1608 8.98446 10.1312 9.39925C10.0719 10.2763 10.0156 11.0792 9.96822 11.814C9.68378 12.0422 9.39637 12.2674 9.1149 12.4955C8.72379 12.8037 8.36823 13.1504 8.02748 13.4911C7.34897 14.1815 6.71489 14.8896 6.14007 15.6452C5.99489 15.8348 5.85859 16.0334 5.72822 16.2348C5.66304 16.3415 5.60081 16.4422 5.54155 16.5607C5.47934 16.6822 5.43192 16.8067 5.3934 16.9311C5.2423 17.4319 5.23044 17.9207 5.24525 18.3859C5.25712 18.8511 5.30748 19.2955 5.34007 19.7282C5.3549 19.9415 5.36378 20.1518 5.36378 20.3533C5.36081 20.5696 5.35785 20.786 5.3549 20.9963C5.33416 21.8496 5.266 22.6763 5.2097 23.5C5.10304 25.1445 5.00822 26.6911 4.94008 28.1489C4.88081 29.4763 4.85416 30.7682 4.87488 32.0215C4.88675 32.6496 4.9134 33.2659 4.95192 33.8733C4.99341 34.4778 5.04377 35.1237 5.33712 35.734C5.48527 36.0363 5.70453 36.3148 5.96527 36.5222C6.22601 36.7326 6.51934 36.8807 6.80971 36.9874C7.39933 37.1948 7.98008 37.2541 8.53119 37.3014C9.62452 37.3874 10.6793 37.4644 11.6986 37.5267C15.7786 37.7785 19.2986 37.8585 22.3238 37.8674C28.3771 37.8704 32.463 37.6185 35.2186 37.423C35.903 37.3726 36.5312 37.337 37.0764 37.177C37.6245 37.0318 38.0749 36.7326 38.3445 36.3859C38.6171 36.0422 38.7356 35.6955 38.8127 35.4111C38.8867 35.1267 38.9134 34.8896 38.9312 34.7029C38.9816 33.9445 38.9164 33.8911 38.8749 33.8852C38.8216 33.8793 38.7949 33.9415 38.6675 34.6644C38.6319 34.8422 38.5845 35.0645 38.4986 35.3192C38.4127 35.5741 38.2882 35.8704 38.0482 36.14C37.8142 36.4126 37.4527 36.6407 36.9638 36.7563C36.4749 36.8837 35.8823 36.9045 35.189 36.937C32.4364 37.0733 28.3593 37.2748 22.3267 37.2363C19.3104 37.2096 15.8053 37.1148 11.743 36.857C10.7267 36.7918 9.67489 36.7119 8.59045 36.626C8.05415 36.5815 7.52082 36.5193 7.04083 36.3474C6.95538 36.315 6.86998 36.2796 6.79041 36.2384C7.50453 35.7254 8.73503 34.7687 10.8883 33.0257C12.2122 31.9541 14.2704 30.2387 15.9828 28.7727C17.6953 27.3067 19.0618 26.0901 19.0022 26.0164C18.9427 25.9428 17.4682 27.0261 15.6777 28.3956C13.8872 29.7651 11.7806 31.4211 10.4568 32.4927C8.16116 34.3509 6.95699 35.3704 6.33826 35.9441C6.17843 35.8019 6.04518 35.6362 5.95044 35.4348C5.73118 34.9845 5.67192 34.4215 5.63342 33.8289C5.59785 33.2333 5.57119 32.626 5.55934 32.0096C5.5386 30.7741 5.56526 29.497 5.62452 28.1785C5.69266 26.7355 5.78748 25.18 5.88823 23.5474C5.94453 22.7355 6.01563 21.8852 6.03044 21.014C6.03341 20.7978 6.03934 20.5785 6.04229 20.3592C6.04229 20.1281 6.02748 19.9 6.01267 19.6777C5.97711 19.2304 5.92971 18.7948 5.91488 18.3622C5.90304 18.0185 5.91192 17.6777 5.97415 17.3608C6.15488 17.497 6.39194 17.663 6.6734 17.8585C7.38452 18.3533 8.37711 19.0229 9.47637 19.7607C11.6719 21.2333 14.309 22.9489 16.0216 23.9889C19.1416 25.8911 20.8067 26.7444 21.6719 27.1504C22.5401 27.5474 22.6112 27.4881 22.6556 27.4052C22.6823 27.3548 22.6971 27.2985 22.5075 27.1414C22.5282 27.1356 22.549 27.1296 22.5727 27.1207C22.783 27.0467 23.0734 26.9074 23.4438 26.7119C23.8378 26.5015 24.3149 26.2289 24.866 25.8971C24.8749 25.8911 24.8838 25.8852 24.8956 25.8793C25.3578 25.6185 25.8616 25.3281 26.386 25.014C28.5727 23.7163 31.1208 22.0956 32.7356 21.0585C35.6779 19.1681 37.1919 18.2319 37.9475 17.7163C38.1282 17.5948 38.2645 17.497 38.3682 17.42C38.4956 17.6777 38.6082 17.9385 38.6941 18.2022C38.8097 18.5607 38.8334 18.9489 38.8423 19.3341C38.8482 20.1015 38.7742 20.8896 38.8364 21.6333C38.869 22.3711 38.9016 23.0852 38.9312 23.7696C38.946 24.1134 38.9638 24.4481 38.9786 24.777C38.9816 25.1059 38.9875 25.4289 38.9934 25.743C39.0201 28.2556 38.9697 30.2941 38.9282 31.6985C38.9045 32.4037 38.8867 32.9489 38.8749 33.3192C38.863 33.6896 38.863 33.8852 38.8749 33.8852C38.8867 33.8852 38.9105 33.6896 38.946 33.3252C38.9786 32.9548 39.023 32.4097 39.0645 31.7074C39.1534 30.3 39.2482 28.2615 39.2601 25.74V24.7741C39.2482 24.4452 39.2393 24.1074 39.2304 23.7637ZM17.7104 6.54884C18.5104 5.92963 19.3104 5.31034 20.1134 4.68816C20.9193 4.07184 21.7016 3.41407 22.5549 2.94887C22.9786 2.71478 23.426 2.53705 23.8823 2.46297C24.3386 2.39483 24.7979 2.43628 25.2156 2.62002C26.063 2.98446 26.706 3.76961 27.3756 4.50146C28.3327 5.55332 29.2808 6.59333 30.2141 7.62147C29.2542 7.7074 28.3327 7.74589 27.429 7.75479H24.703C23.8378 7.76368 23.0142 7.77258 22.2438 7.78148C20.0956 7.78148 18.146 7.70444 16.3742 7.58588C16.8186 7.23923 17.266 6.89556 17.7104 6.54884ZM6.81564 17.6333C6.49267 17.4526 6.22008 17.3014 6.01267 17.1948C6.0186 17.1711 6.02451 17.1474 6.03044 17.1267C6.13119 16.78 6.40971 16.4037 6.67045 16.0452C7.21563 15.3222 7.83784 14.62 8.49267 13.9504C8.82452 13.6185 9.15933 13.2896 9.52377 12.9992C9.6512 12.8956 9.7786 12.7948 9.90897 12.6911C9.80822 14.297 9.73415 15.5326 9.68378 16.4837C9.59785 18.0778 9.58007 18.8718 9.5949 19.2659C8.51638 18.6171 7.5386 18.0393 6.81564 17.6333ZM16.3771 23.4052C14.6941 22.377 12.063 20.7682 9.82303 19.4022C9.89711 19.0674 9.99786 18.2941 10.1667 16.5222C10.2645 15.4674 10.389 14.0629 10.5401 12.1844C10.5638 11.9 10.5875 11.6066 10.6142 11.2986C10.6586 10.7237 10.709 10.1103 10.7623 9.45263C10.7949 9.03777 10.8275 8.60519 10.863 8.15778C10.8719 8.04522 10.8808 7.93259 10.8897 7.81707C10.8956 7.76368 10.9045 7.75775 10.9253 7.73706C10.949 7.71927 10.9697 7.71037 11.0053 7.7163C11.1238 7.73113 11.2453 7.74893 11.3667 7.76368C12.3327 7.89114 13.3756 8.00963 14.4986 8.11337C14.5519 8.1193 14.6053 8.12219 14.6586 8.12812C14.9579 8.15481 15.2601 8.18151 15.5712 8.20516C17.5534 8.36221 19.7697 8.46891 22.2438 8.46594C23.0142 8.45704 23.8408 8.44814 24.709 8.43925C25.5771 8.43332 26.4897 8.43035 27.4379 8.42738C28.389 8.41559 29.3875 8.36517 30.3919 8.26744C30.5193 8.25558 30.6438 8.24372 30.7712 8.23482C30.9727 8.21406 31.1741 8.19626 31.3786 8.17847C32.066 8.11336 32.7653 8.05108 33.4734 7.98591C33.7341 7.96218 33.9949 7.93852 34.2586 7.9148L34.6556 7.87928C34.7712 7.87038 34.9727 7.84665 34.9579 7.85555C34.9875 7.85852 35.0171 7.88521 35.0349 7.91776C35.0408 7.93556 35.0438 7.94742 35.0438 7.97404L35.0379 8.17558C35.029 8.44518 35.023 8.71478 35.0201 8.98446C35.0053 10.0659 35.029 11.1533 35.0912 12.2348C35.0942 12.2674 35.0942 12.3 35.0971 12.3326C35.109 12.5666 35.1238 12.8007 35.1386 13.0318C35.1919 13.8467 35.263 14.6526 35.349 15.4555C35.4023 15.9859 35.4616 16.5133 35.5267 17.0348C35.586 17.497 35.6453 17.9534 35.7045 18.4066C34.8571 18.9104 33.7697 19.58 32.3653 20.4837C30.7475 21.5208 28.2438 23.2037 26.1282 24.6022C24.3416 25.7933 22.8186 26.7504 22.4186 27.0704C22.303 26.9845 22.1371 26.8718 21.903 26.7237C21.103 26.2111 19.4853 25.2985 16.3771 23.4052ZM37.7016 17.2986C37.346 17.4733 36.8571 17.7371 36.1756 18.1311C36.1312 17.7489 36.0867 17.3637 36.0423 16.9756C35.989 16.4541 35.9386 15.9296 35.8853 15.4022C35.8319 14.8393 35.7875 14.2763 35.7519 13.7074C35.8378 13.8022 35.9238 13.8971 36.0097 13.9918C36.3179 14.3208 36.5905 14.6348 36.8482 14.9845C37.3519 15.663 37.8082 16.3681 38.1934 17.0763C38.069 17.1237 37.909 17.1978 37.7016 17.2986Z" fill="black"/>
<path d="M33.1395 32.2788C32.0936 31.1115 30.4704 29.2461 29.0688 27.7017C27.6698 26.1555 26.4729 24.957 26.4038 25.0199C26.3327 25.0845 27.3986 26.3936 28.7004 28.0172C30.0043 29.6381 31.5727 31.5579 32.6274 32.7349C34.5472 34.8876 35.6567 35.8728 36.2371 36.3505C36.8273 36.8207 36.9066 36.7776 36.971 36.708C37.0353 36.6386 37.0709 36.5544 36.5715 35.9993C36.0805 35.4352 35.0437 34.4138 33.1395 32.2788Z" fill="black"/>
<path d="M18.6111 14.3147C18.9341 14.3384 19.2748 14.3207 19.6097 14.2496C19.9504 14.1784 20.2704 14.054 20.5726 13.9206C21.1711 13.654 21.74 13.3695 22.2704 13.3814C22.7948 13.3873 23.2778 13.6955 23.743 14.0125C24.2082 14.3296 24.6852 14.6673 25.2185 14.7947C25.7015 14.9281 26.1934 14.851 26.5785 14.7236C26.9696 14.5962 27.2897 14.4243 27.58 14.2732C28.1578 13.9621 28.626 13.7339 29.0319 13.6717C29.2334 13.6451 29.4171 13.6451 29.583 13.6806C29.7548 13.7132 29.9237 13.7725 30.0897 13.8229C30.2526 13.8762 30.4156 13.9206 30.5697 13.9444C30.7267 13.9711 30.8867 13.9711 31.0141 13.9503C31.5445 13.8673 31.7459 13.5473 31.7697 13.4081C31.7993 13.2569 31.7459 13.2391 31.7045 13.2273C31.6571 13.2096 31.6156 13.2185 31.5386 13.2777C31.4585 13.331 31.3311 13.4584 30.9696 13.4673C30.7948 13.4732 30.5874 13.414 30.2793 13.2866C30.1222 13.2273 29.9445 13.1503 29.7193 13.091C29.4911 13.0317 29.2245 13.0169 28.9489 13.0436C28.3948 13.1088 27.8408 13.3814 27.2719 13.6777C26.703 13.9592 26.06 14.3058 25.3874 14.131C25.0111 14.0451 24.5934 13.7725 24.1163 13.4554C23.8734 13.2985 23.6126 13.1266 23.3074 12.9873C23.0023 12.845 22.6408 12.7444 22.2704 12.7473C21.5148 12.7681 20.8985 13.1355 20.3326 13.4051C20.0482 13.5443 19.7726 13.6629 19.4911 13.7339C19.2096 13.8051 18.9193 13.8377 18.6319 13.8317C17.4674 13.808 16.4689 13.2807 15.7815 12.8984C15.0911 12.5043 14.6674 12.2407 14.6378 12.2821C14.6141 12.3177 14.9815 12.6525 15.6393 13.1236C15.9711 13.3577 16.38 13.6243 16.8778 13.8525C17.3726 14.0836 17.9623 14.2732 18.6111 14.3147Z" fill="black"/>
<path d="M23.8793 19.3904C24.3 19.1682 24.6793 19.026 25.026 18.9667C25.3371 18.9134 25.6245 18.9282 25.8615 19.0082C26.0926 19.0823 26.306 19.2452 26.5371 19.4112C26.7682 19.5712 27.02 19.7459 27.3282 19.823C27.6363 19.9089 27.9652 19.8437 28.1815 19.7459C28.4037 19.6512 28.5667 19.5445 28.7089 19.4674C28.8482 19.3904 28.9667 19.3371 29.0912 19.2956C29.3312 19.2186 29.5386 19.1889 29.7075 19.1771C30.0452 19.1593 30.226 19.1889 30.3297 19.1771C30.4334 19.1682 30.4571 19.1297 30.4748 19.0852C30.4897 19.0408 30.5015 18.9964 30.4126 18.9223C30.3237 18.8542 30.1312 18.7415 29.7193 18.6941C29.5119 18.6734 29.2511 18.6734 28.9341 18.7504C28.7771 18.786 28.6023 18.8511 28.4334 18.9311C28.2674 19.0111 28.1045 19.1 27.9475 19.1593C27.7845 19.2186 27.6512 19.2363 27.4941 19.1889C27.3341 19.1474 27.1504 19.0289 26.9311 18.8659C26.7148 18.7089 26.4541 18.4926 26.0808 18.3623C25.7163 18.2378 25.3074 18.223 24.9104 18.2911C24.4748 18.3652 24.0067 18.5519 23.5682 18.7948C23.1237 19.0319 22.6911 19.3104 22.2289 19.4971C21.3134 19.8822 20.1756 19.7934 19.2304 19.4734C18.2734 19.1564 17.4763 18.6467 16.8986 18.2882C16.3237 17.9237 15.9593 17.6986 15.9326 17.74C15.903 17.7756 16.2111 18.0719 16.7445 18.5074C17.2808 18.9342 18.0541 19.5237 19.0645 19.9297C19.5682 20.1282 20.1282 20.2763 20.7119 20.3208C21.2926 20.3652 21.906 20.2911 22.4541 20.0867C23.0023 19.8822 23.4586 19.6037 23.8793 19.3904Z" fill="black"/>
<path d="M35.5298 6.56543C35.7161 6.59972 36.0329 5.72675 36.1102 5.30704C36.2513 4.54098 36.1032 4.49715 35.9169 4.46286C35.7306 4.42857 35.5767 4.41685 35.4356 5.18277C35.3584 5.60262 35.3435 6.53115 35.5298 6.56543Z" fill="black"/>
<path d="M37.1886 6.86678C37.4747 6.69157 37.7673 6.43405 37.9299 6.2506C38.5169 5.57222 38.3836 5.43839 38.2349 5.33509C38.0735 5.22138 37.9688 5.15757 37.4171 5.79516C37.2636 5.96834 37.0442 6.25986 36.8624 6.50798C36.6842 6.76 36.5317 6.95387 36.5754 7.03749C36.6195 7.12285 36.9057 7.04733 37.1886 6.86678Z" fill="black"/>
<path d="M37.4548 7.88496C37.2076 7.97813 37.029 8.10762 37.0497 8.1992C37.0706 8.29222 37.2777 8.33273 37.5143 8.3663C37.7521 8.39798 38.0187 8.42894 38.1848 8.43762C38.4881 8.45339 38.6381 8.45556 38.7311 8.41187C38.8225 8.37151 38.8514 8.29034 38.8769 8.1992C38.9024 8.10805 38.9245 8.02515 38.8465 7.94081C38.7693 7.86066 38.5845 7.77125 38.2159 7.75244C38.0142 7.74173 37.7003 7.7902 37.4548 7.88496Z" fill="black"/>
<path d="M3.30109 23.6578C3.11272 23.638 2.95539 23.6661 2.73367 25.7744C2.61218 26.9297 2.50414 29.4249 2.69247 29.4447C2.88084 29.4645 3.29429 27.0013 3.41578 25.8461C3.6375 23.7378 3.48942 23.6776 3.30109 23.6578Z" fill="black"/>
<path d="M1.59292 25.8149C1.40354 25.8149 1.25 25.8301 1.25 26.5541C1.25 26.9508 1.40354 27.8021 1.59292 27.8021C1.78234 27.8021 1.93587 26.9508 1.93587 26.5541C1.93587 25.8301 1.78234 25.8149 1.59292 25.8149Z" fill="black"/>
</svg>
